 <svg version="1.1" xmlns="http://www.w3.org/2000/svg" xmlns:xlink="http://www.w3.org/1999/xlink" x="0px" y="0px" viewBox="0 0 64.6 64" style="enable-background:new 0 0 64.6 64;" xml:space="preserve">
    <g>
        <g>
            <path class="st0" d="M24.5,58h-13v-3c0-0.1-0.1-1.6-1.7-3.3l-7-7c-2.3-2.3-2.3-4.6-2.3-4.7V24c0-2.2,1.8-4,4-4c2.2,0,4,1.8,4,4v8
                h-2v-8c0-1.1-0.9-2-2-2c-1.1,0-2,0.9-2,2v16c0,0.1,0.1,1.6,1.7,3.3l7,7c2.3,2.3,2.3,4.6,2.3,4.7v1h9v-7c0,0,0-2.6-1.7-4.3L11.1,35
                h-0.6c-1.1,0-2,0.9-2,2v0.6l6.7,6.7l-1.4,1.4l-7.3-7.3V37c0-2.2,1.8-4,4-4h1.4l10.3,10.3c2.3,2.3,2.3,5.6,2.3,5.7V58z"/>
        </g>
        <g>
            <path class="st0" d="M26.5,64h-17v-8h17V64z M11.5,62h13v-4h-13V62z"/>
        </g>
        <g>
            <path class="st0" d="M53.5,58h-13v-9c0-0.1,0-3.4,2.3-5.7L53.1,33h1.4c2.2,0,4,1.8,4,4v1.4l-7.3,7.3l-1.4-1.4l6.7-6.7V37
                c0-1.1-0.9-2-2-2h-0.6l-9.7,9.7c-1.7,1.7-1.7,4.3-1.7,4.3v7h9v-1c0-0.1,0-2.4,2.3-4.7l7-7c1.7-1.7,1.7-3.2,1.7-3.3V24
                c0-1.1-0.9-2-2-2c-1.1,0-2,0.9-2,2v8h-2v-8c0-2.2,1.8-4,4-4c2.2,0,4,1.8,4,4v16c0,0.1,0,2.4-2.3,4.7l-7,7
                c-1.7,1.7-1.7,3.2-1.7,3.3V58z"/>
        </g>
        <g>
            <path class="st0" d="M55.5,64h-17v-8h17V64z M40.5,62h13v-4h-13V62z"/>
        </g>
        <g>
            <rect x="31.5" y="14" class="st0" width="2" height="40"/>
        </g>
        <g>
            <path class="st0" d="M32.5,30c-0.2,0-0.5-0.1-0.7-0.3c-0.3-0.3-8.3-7.8-8.3-14.7s8-14.4,8.3-14.7c0.4-0.4,1-0.4,1.4,0
                C33.5,0.6,41.5,8,41.5,15s-8,14.4-8.3,14.7C33,29.9,32.7,30,32.5,30z M32.5,2.4c-1.9,1.9-7,7.6-7,12.6s5.1,10.7,7,12.6
                c1.9-1.9,7-7.6,7-12.6S34.4,4.3,32.5,2.4z"/>
        </g>
        <g>
            <path class="st0" d="M31.6,42c-1.9,0-6.8-0.3-9.8-3.3c-3.7-3.7-5.2-11.2-5.3-11.5c-0.1-0.3,0-0.6,0.2-0.8c0.2-0.2,0.4-0.4,0.7-0.4
                c0,0,0.3,0,0.9,0c1.7,0,5.9,0.3,8.9,3.3c3.7,3.7,6.1,11.1,6.2,11.4c0.1,0.3,0.1,0.6-0.1,0.9c-0.2,0.3-0.4,0.4-0.8,0.4
                C32.6,42,32.2,42,31.6,42z M18.8,28c0.6,2.2,2,6.8,4.5,9.3c2.3,2.3,6,2.7,7.9,2.7c-0.9-2.2-2.8-6.8-5.3-9.3
                C23.6,28.5,20.4,28,18.8,28z"/>
        </g>
        <g>
            <path class="st0" d="M33.4,42L33.4,42c-0.6,0-1,0-1,0c-0.3,0-0.6-0.2-0.8-0.4c-0.2-0.3-0.2-0.6-0.1-0.9c0.1-0.3,2.6-7.7,6.2-11.4
                c3-3,7.2-3.3,8.9-3.3c0.6,0,0.9,0,0.9,0c0.3,0,0.5,0.2,0.7,0.4c0.2,0.2,0.2,0.5,0.2,0.8c-0.1,0.3-1.6,7.8-5.3,11.5
                C40.2,41.7,35.4,42,33.4,42z M46.2,28c-1.6,0.1-4.8,0.5-7,2.7c-2.5,2.5-4.4,7.1-5.3,9.3c1.9-0.1,5.6-0.5,7.9-2.7
                C44.3,34.8,45.7,30.2,46.2,28z"/>
        </g>
    </g>
</svg>