<svg version="1.1" xmlns="http://www.w3.org/2000/svg" xmlns:xlink="http://www.w3.org/1999/xlink" x="0px" y="0px" viewBox="0 0 48.4 78.6" style="enable-background:new 0 0 48.4 78.6;" xml:space="preserve">
    <g>
        <g>
            <polygon class="st0" points="43.7,79 41.7,79 41.7,70 21.7,70 21.7,79 19.7,79 19.7,68 43.7,68 		"/>
        </g>
        <g>
            <rect x="37.7" y="72" class="st0" width="2" height="2"/>
        </g>
        <g>
            <rect x="33.7" y="72" class="st0" width="2" height="2"/>
        </g>
        <g>
            <path class="st0" d="M41.7,68h-2v-2c0-0.9,0.5-1.9,1.2-3.3c1.2-2.3,2.8-5.4,2.8-9.7v-7c0-1.1-0.9-2-2-2s-2,0.9-2,2h-2v-2
                c0-1.1-0.9-2-2-2s-2,0.9-2,2h-2v-2c0-1.1-0.9-2-2-2c-1.1,0-2,0.9-2,2h-2V31c0-1.1-0.9-2-2-2c-1.1,0-2,0.9-2,2v25.2l-5.9-11.8
                c0,0-0.8-1.4-2.1-1.4c-1,0-1.9,0.8-2,1.8l5.8,14.6c1.6,1.6,6.1,6.4,6.1,8.6h-2c0-0.9-2.6-4.2-5.7-7.3l-0.1-0.1L9.7,45.1V45
                c0-2.2,1.8-4,4-4c2.6,0,3.8,2.4,3.9,2.6l2.1,4.2V31c0-2.2,1.8-4,4-4c2.2,0,4,1.8,4,4v7.5c0.6-0.3,1.3-0.5,2-0.5
                c1.7,0,3.2,1.1,3.8,2.7c0.6-0.4,1.4-0.7,2.2-0.7c1.7,0,3.2,1.1,3.8,2.7c0.6-0.4,1.4-0.7,2.2-0.7c2.2,0,4,1.8,4,4v7
                c0,4.8-1.8,8.3-3,10.6c-0.5,1-1,1.9-1,2.4V68z"/>
        </g>
        <g>
            <rect x="37.7" y="45" class="st0" width="2" height="3"/>
        </g>
        <g>
            <rect x="31.7" y="44" class="st0" width="2" height="3"/>
        </g>
        <g>
            <rect x="25.7" y="42" class="st0" width="2" height="4"/>
        </g>
    </g>
    <path class="st0" d="M40.9,27.1c-3.9,0-7-3.1-7-7c0-4.1,4.7-7,9-7h5v5C47.9,22.4,45,27.1,40.9,27.1z M42.9,15.1c-3.6,0-7,2.4-7,5
        c0,2.8,2.2,5,5,5c2.6,0,5-3.4,5-7v-3H42.9z"/>
    <rect x="31.4" y="23.6" transform="matrix(0.7071 -0.7071 0.7071 0.7071 -6.734 32.939)" class="st0" width="9.9" height="2"/>
    <path class="st0" d="M0.3,18.4v-5h5c4.3,0,9,2.9,9,7c0,3.9-3.1,7-7,7C3.2,27.4,0.3,22.6,0.3,18.4z M2.3,15.4v3c0,3.6,2.4,7,5,7
        c2.8,0,5-2.2,5-5c0-2.6-3.4-5-7-5H2.3z"/>
    <rect x="10.8" y="19.9" transform="matrix(0.7071 -0.7071 0.7071 0.7071 -14.1348 15.6579)" class="st0" width="2" height="9.9"/>
    <path class="st0" d="M28.7,13.8c-2.1,3.2-6.4,4.2-9.7,2.1c-3.5-2.2-3.3-7.8-1-11.4l2.7-4.2L25,3C28.6,5.3,31,10.3,28.7,13.8z
        M19.8,5.6c-2,3-1.8,7.2,0.4,8.6c2.3,1.5,5.4,0.8,6.9-1.5c1.4-2.2-0.1-6-3.2-8L21.4,3L19.8,5.6z"/>
    <rect x="23.2" y="11.2" transform="matrix(0.9778 -0.2095 0.2095 0.9778 -2.8506 5.4296)" class="st0" width="2" height="9.9"/>
</svg>