<svg version="1.1" xmlns="http://www.w3.org/2000/svg" xmlns:xlink="http://www.w3.org/1999/xlink" x="0px" y="0px" viewBox="0 0 64.3 44.5" style="enable-background:new 0 0 64.3 44.5;" xml:space="preserve">
    <g>
        <g>
            <polygon class="st0" points="13.1,39.2 0.1,39.2 0.1,37.2 11.1,37.2 11.1,19.2 0.1,19.2 0.1,17.2 13.1,17.2 		"/>
        </g>
        <g>
            <path class="st0" d="M20.1,20.2"/>
        </g>
        <g>
            <path class="st0" d="M28.1,33.2h-2c0-2.2,1.8-4,4-4h11c1.1,0,2-0.9,2-2c0-1.1-0.9-2-2-2h-9.2l-11-4h-7.8v-2h8.2l11,4h8.8
                c2.2,0,4,1.8,4,4s-1.8,4-4,4h-11C29,31.2,28.1,32.1,28.1,33.2z"/>
        </g>
        <g>
            <rect x="7.1" y="33.2" class="st0" width="2" height="2"/>
        </g>
        <g>
            <rect x="7.1" y="29.2" class="st0" width="2" height="2"/>
        </g>
        <g>
            <path class="st0" d="M36.1,43.2c-3,0-16.9-5.1-19.2-6h-3.8v-2h4.2l0.2,0.1c6.4,2.4,16.6,5.9,18.6,5.9c1.7,0,14.3-7.1,25.5-13.9
                c0.4-0.3,0.5-0.5,0.5-1.1c0-1.1-0.9-2-2-2c-1,0.2-11.1,4.1-17.2,6.5l-0.7-1.9c7.6-3,16.9-6.7,17.9-6.7c2.2,0,4,1.8,4,4
                c0,1.3-0.4,2.1-1.4,2.8C58.7,31.4,39.2,43.2,36.1,43.2z"/>
        </g>
        <g>
            <g>
                <path class="st0" d="M43.1,14.2c-3.9,0-7-3.1-7-7c0-4.1,4.7-7,9-7h5v5C50.1,9.4,47.2,14.2,43.1,14.2z M45.1,2.2c-3.6,0-7,2.4-7,5
                    c0,2.8,2.2,5,5,5c2.6,0,5-3.4,5-7v-3H45.1z"/>
            </g>
            <g>
                <path class="st0" d="M27.1,14.2c-4.1,0-7-4.7-7-9v-5h5c4.3,0,9,2.9,9,7C34.1,11,31,14.2,27.1,14.2z M22.1,2.2v3c0,3.6,2.4,7,5,7
                    c2.8,0,5-2.2,5-5c0-2.6-3.4-5-7-5H22.1z"/>
            </g>
            <g>
                <rect x="34.1" y="15.2" class="st0" width="2" height="9"/>
            </g>
            <g>
                <rect x="30.6" y="6.7" transform="matrix(0.7071 -0.7071 0.7071 0.7071 1.0071 25.7646)" class="st0" width="2" height="9.9"/>
            </g>
            <g>
                <rect x="33.7" y="10.7" transform="matrix(0.7071 -0.7071 0.7071 0.7071 3.0573 30.7144)" class="st0" width="9.9" height="2"/>
            </g>
        </g>
    </g>
</svg>